<?xml version="1.0" standalone="no"?>
<!DOCTYPE svg PUBLIC "-//W3C//DTD SVG 20010904//EN"
 "http://www.w3.org/TR/2001/REC-SVG-20010904/DTD/svg10.dtd">
<svg version="1.0" xmlns="http://www.w3.org/2000/svg"
 width="260.000000pt" height="260.000000pt" viewBox="0 0 260.000000 260.000000"
 preserveAspectRatio="xMidYMid meet">
<metadata>
Created by potrace 1.11, written by Peter Selinger 2001-2013
</metadata>
<g transform="translate(0.000000,260.000000) scale(0.100000,-0.100000)"
fill="#000000" stroke="none">
<path d="M1640 1886 c0 -7 91 -432 96 -447 3 -12 -10 -22 -57 -38 -33 -13 -62
-21 -64 -19 -1 1 -26 45 -55 96 -53 93 -77 125 -40 52 11 -23 18 -46 14 -52
-4 -6 -3 -9 2 -5 5 3 8 -80 7 -201 -2 -177 -6 -213 -23 -259 -11 -30 -20 -61
-19 -71 0 -9 8 8 18 38 48 151 180 265 339 292 219 37 430 -109 478 -333 20
-90 8 -85 144 -61 l95 18 3 49 c3 50 -13 171 -27 193 -6 9 -21 8 -66 -8 -32
-11 -61 -20 -65 -20 -7 0 -73 101 -68 105 34 22 128 98 128 102 0 25 -138 197
-198 248 l-31 26 -52 -96 c-28 -53 -57 -99 -63 -101 -6 -2 -33 5 -61 15 -58
22 -56 6 -24 195 11 65 19 120 17 121 -9 8 -133 67 -188 89 -60 25 -240 78
-240 72z"/>
<path d="M1470 1621 c0 -6 4 -13 10 -16 6 -3 7 1 4 9 -7 18 -14 21 -14 7z"/>
<path d="M1978 1223 c9 -3 12 -49 12 -178 0 -157 -2 -174 -17 -178 -10 -3 29
-5 87 -6 58 -1 129 -4 159 -8 l54 -6 -6 62 c-11 128 -114 268 -223 305 -43 14
-99 22 -66 9z"/>
<path d="M1488 895 c-3 -14 -1 -28 3 -31 5 -3 9 9 9 25 0 38 -6 40 -12 6z"/>
</g>
</svg>
