<?xml version="1.0" encoding="utf-8"?>
<!-- Generator: Adobe Illustrator 19.1.1, SVG Export Plug-In . SVG Version: 6.00 Build 0)  -->
<svg version="1.1" id="Layer_1" xmlns="http://www.w3.org/2000/svg" xmlns:xlink="http://www.w3.org/1999/xlink" x="0px" y="0px"
	 viewBox="-130 222 350 350" style="enable-background:new -130 222 350 350;" xml:space="preserve">
<style type="text/css">
	.st0{fill:#69FF47;}
	.st1{fill:#69FF47;stroke:#69FF47;stroke-width:9.9745;}
</style>
<g>
	<path class="st0" d="M45,242c29,0,56,11,75,29c19,17,31,42,31,69h-10c0-25-10-46-28-62c-17-16-41-26-68-26s-51,10-68,26
		c-18,16-28,37-28,62h-10c0-27,12-52,31-69C-11,253,16,242,45,242z"/>
	<path class="st0" d="M45,535c29,0,56-10,75-28s31-42,31-69h-10c0,24-10,46-28,62c-17,16-41,26-68,26V535z"/>
	<path class="st1" d="M-56,340c-22,0-40,22-40,49s18,49,40,49V340z"/>
	<path class="st1" d="M146,340c22,0,40,22,40,49s-18,49-40,49V340z"/>
	<ellipse class="st0" cx="43" cy="531" rx="38" ry="21"/>
</g>
</svg>
